<svg xmlns="http://www.w3.org/2000/svg" xmlns:xlink="http://www.w3.org/1999/xlink" version="1.1" id="Layer_1" x="0px" y="0px" width="100%" viewBox="0 0 820 861" enable-background="new 0 0 820 861" xml:space="preserve">
<svg xmlns="http://www.w3.org/2000/svg" viewBox="0 0 820 861" width="100%" height="100%" preserveAspectRatio="xMidYMid meet">
	<!-- Phone silhouette only (transparent background). Keep fill white so it sits on the CSS navy badge. -->
	<path fill="#ffffff" d="M392.105896,544.891663 C407.381531,559.036987 422.070862,573.323120 437.573242,586.664490 C446.910187,594.699890 447.402039,593.939209 457.113312,586.485596 C468.325256,577.880249 479.167603,568.639954 491.103088,561.164307 C512.553406,547.729187 533.812256,549.508362 553.763367,565.106262 C571.005615,578.586304 585.214478,594.894043 596.789795,613.361572 C606.535278,628.909607 604.869629,642.405090 591.167603,655.716797 C566.918274,679.275452 538.026611,691.028076 503.754059,688.526733 C472.569611,686.250732 445.252075,673.656128 419.322144,657.445190 C374.442596,629.387207 338.222473,592.165466 307.349182,549.591309 C273.256622,502.577850 246.874893,451.613861 230.906982,395.577576 C221.793915,363.596985 218.225052,330.945068 219.972229,297.709564 C221.296951,272.510254 231.998871,251.100754 247.353622,231.929932 C255.218155,222.110825 263.989685,212.760864 273.567871,204.632462 C287.639221,192.691040 304.564209,191.159897 318.526581,200.275497 C324.891083,204.430725 330.690765,210.356918 334.934601,216.693420 C350.969818,240.635712 360.290283,267.017914 362.328796,296.012787 C362.827606,303.107544 360.964203,307.486542 355.920105,312.268066 C345.112030,322.513580 332.560822,329.840149 319.642609,336.828796 C313.802155,339.988464 308.103149,343.485016 302.664001,347.291718 C296.051544,351.919586 293.215240,358.597260 293.309906,366.695862 C293.477966,381.066895 298.503632,394.172943 304.265564,406.895447 C326.928192,456.935364 355.268280,503.425110 392.105896,544.891663 z"/>
</svg>
</svg>
